<svg width="271" height="153" viewBox="0 0 271 153" fill="none" xmlns="http://www.w3.org/2000/svg">
<g filter="url(#filter0_d_138_5024)">
<path d="M77.1906 73.6016L77.2024 86.5907L97.4025 86.5555L97.4143 98.4172L77.2141 98.4525L77.2376 123.386L61.8878 123.397L61.8291 61.8456L108.195 61.7986L108.207 73.5663L77.1906 73.6016Z" fill="white"/>
<path d="M145.308 123.35L140.328 110.056L114.502 110.079L109.546 123.374L94.9951 123.386L120.938 61.8103L134.55 61.7986L160.434 123.327L145.308 123.35ZM138.836 103.538L127.891 76.6668L118.883 100.12C118.883 100.12 129.406 95.1876 138.836 103.538Z" fill="white"/>
<path d="M209.924 113.262C207.14 116.409 199.471 123.385 187.445 123.397C185.261 123.397 180.211 123.139 174.891 120.79C158.672 113.485 157.861 95.6101 157.861 90.7245C157.861 86.9781 158.284 77.3008 165.342 68.751C168.126 65.2629 175.102 58.0989 187.657 58.0872C195.936 58.0754 203.969 61.4695 209.372 67.6588C211.638 70.2777 213.036 72.9789 213.647 74.0242L201.538 80.049C200.669 78.3108 200.059 77.3478 199.53 76.6549C198.391 74.9989 194.644 70.7358 188.361 70.7358C186.623 70.7358 182.524 71.0881 179.036 74.4117C176.511 76.7723 173.199 81.9163 173.211 90.3722C173.211 91.1591 173.211 92.6388 173.481 94.5532C174.538 103.009 178.202 106.838 181.608 108.752C182.747 109.445 185.096 110.49 188.408 110.49C197.04 110.478 200.352 103.761 201.738 101.412L213.952 107.589C212.108 110.384 210.793 112.217 209.924 113.262Z" fill="white"/>
<path d="M250.689 73.9536L250.736 123.385L235.222 123.397L235.175 73.9654L219.132 73.9771L219.12 61.857L266.637 61.8101L266.649 73.9301L250.689 73.9536Z" fill="white"/>
<path d="M29.4968 100.672L65.3051 34.7632L4 50.066C11.622 52.2739 41.6169 71.1704 29.4968 100.672Z" fill="white"/>
<path d="M35.792 38.3451L56.6263 0L20.959 8.90216C25.3866 10.194 42.8386 21.1867 35.792 38.3451Z" fill="white"/>
<path d="M72.5862 39.5546L85.3757 16.0073L63.4727 21.4684C66.2091 22.267 76.9199 29.02 72.5862 39.5546Z" fill="white"/>
<path d="M66.6752 134.844L66.5209 135.702H64.7363L63.7041 141.548H62.6044L63.6366 135.702H61.8423L61.9967 134.844H66.6752ZM68.4738 137.168C68.6925 136.847 68.9497 136.596 69.2456 136.416C69.5478 136.236 69.8822 136.146 70.2488 136.146L70.0462 137.284H69.7665C69.342 137.284 69.0012 137.39 68.7439 137.602C68.4867 137.815 68.3066 138.181 68.2037 138.702L67.7021 141.548H66.6024L67.5381 136.233H68.6378L68.4738 137.168ZM70.4107 138.866C70.5072 138.332 70.7001 137.86 70.9895 137.448C71.2854 137.037 71.6455 136.718 72.0699 136.493C72.4944 136.262 72.9381 136.146 73.4012 136.146C73.8192 136.146 74.1697 136.229 74.4526 136.397C74.7356 136.557 74.9478 136.76 75.0893 137.004L75.2243 136.233H76.3337L75.398 141.548H74.2886L74.4333 140.757C74.2018 141.008 73.9092 141.217 73.5555 141.384C73.2082 141.551 72.8288 141.635 72.4172 141.635C72.0185 141.635 71.6616 141.545 71.3465 141.365C71.0378 141.185 70.7934 140.93 70.6133 140.602C70.4397 140.268 70.3529 139.885 70.3529 139.455C70.3529 139.262 70.3722 139.065 70.4107 138.866ZM74.7613 138.885C74.787 138.763 74.7999 138.631 74.7999 138.49C74.7999 138.059 74.6713 137.721 74.414 137.477C74.1632 137.226 73.8481 137.101 73.4687 137.101C73.1857 137.101 72.9092 137.172 72.6391 137.313C72.369 137.448 72.1343 137.651 71.9349 137.921C71.7355 138.184 71.6037 138.5 71.5394 138.866C71.5137 138.988 71.5008 139.12 71.5008 139.262C71.5008 139.699 71.6262 140.046 71.877 140.303C72.1343 140.554 72.4526 140.68 72.832 140.68C73.115 140.68 73.3915 140.609 73.6616 140.467C73.9317 140.326 74.1664 140.12 74.3658 139.85C74.5652 139.574 74.697 139.252 74.7613 138.885ZM76.9485 138.885C77.045 138.339 77.2379 137.86 77.5273 137.448C77.8231 137.03 78.1865 136.709 78.6174 136.483C79.0547 136.258 79.5273 136.146 80.0354 136.146C80.6785 136.146 81.1833 136.3 81.5499 136.609C81.9165 136.911 82.1255 137.345 82.1769 137.911H80.9904C80.9389 137.647 80.82 137.442 80.6335 137.294C80.447 137.146 80.1929 137.072 79.8714 137.072C79.4212 137.072 79.0354 137.233 78.7138 137.554C78.3923 137.869 78.18 138.313 78.0772 138.885C78.045 139.091 78.0289 139.258 78.0289 139.387C78.0289 139.811 78.135 140.139 78.3473 140.371C78.5595 140.596 78.8553 140.709 79.2347 140.709C79.8714 140.709 80.3409 140.429 80.6431 139.869H81.8296C81.5788 140.41 81.2123 140.84 80.7299 141.162C80.254 141.477 79.701 141.635 79.0707 141.635C78.4019 141.635 77.8714 141.445 77.4791 141.066C77.0868 140.68 76.8906 140.159 76.8906 139.503C76.8906 139.303 76.9099 139.098 76.9485 138.885ZM85.1925 138.895L87.1797 141.548H85.6941L84.1314 139.262L83.7262 141.548H82.6265L83.8902 134.409H84.9899L84.2568 138.548L86.5912 136.233H88.1154L85.1925 138.895ZM89.5885 135.528C89.4149 135.528 89.2734 135.474 89.1641 135.364C89.0547 135.255 89.0001 135.117 89.0001 134.95C89.0001 134.725 89.0837 134.532 89.2509 134.371C89.4245 134.204 89.6207 134.12 89.8393 134.12C90.013 134.12 90.1512 134.175 90.2541 134.284C90.3634 134.393 90.4181 134.532 90.4181 134.699C90.4181 134.924 90.3345 135.12 90.1673 135.287C90.0001 135.448 89.8072 135.528 89.5885 135.528ZM90.0033 136.233L89.0676 141.548H87.9679L88.9036 136.233H90.0033ZM94.1481 136.146C94.7076 136.146 95.1514 136.297 95.4794 136.599C95.8138 136.895 95.981 137.323 95.981 137.882C95.981 138.024 95.9649 138.201 95.9327 138.413L95.3732 141.548H94.2832L94.8138 138.577C94.8395 138.397 94.8523 138.268 94.8523 138.191C94.8523 137.837 94.7527 137.567 94.5533 137.381C94.3604 137.194 94.0903 137.101 93.743 137.101C93.325 137.101 92.9713 137.229 92.6819 137.487C92.3989 137.737 92.2188 138.101 92.1417 138.577V138.548L91.6111 141.548H90.5114L91.4471 136.233H92.5468L92.4407 136.85C92.6594 136.631 92.9166 136.461 93.2124 136.339C93.5147 136.21 93.8266 136.146 94.1481 136.146ZM99.8725 136.146C100.284 136.146 100.635 136.229 100.924 136.397C101.22 136.557 101.432 136.76 101.561 137.004L101.696 136.233H102.805L101.86 141.635C101.77 142.123 101.59 142.558 101.319 142.937C101.049 143.323 100.699 143.625 100.268 143.844C99.8371 144.062 99.3516 144.172 98.8114 144.172C98.3419 144.172 97.9303 144.095 97.5766 143.94C97.2229 143.792 96.9561 143.577 96.776 143.294C96.5959 143.011 96.5187 142.676 96.5445 142.291H97.6345C97.6667 142.567 97.8049 142.789 98.0493 142.956C98.2937 143.13 98.6056 143.217 98.985 143.217C99.4288 143.217 99.8114 143.082 100.133 142.812C100.455 142.541 100.66 142.149 100.75 141.635L100.905 140.747C100.673 140.998 100.384 141.21 100.037 141.384C99.6892 141.551 99.313 141.635 98.9079 141.635C98.5027 141.635 98.1426 141.545 97.8275 141.365C97.5123 141.185 97.2647 140.93 97.0847 140.602C96.911 140.268 96.8242 139.885 96.8242 139.455C96.8242 139.262 96.8435 139.065 96.8821 138.866C96.9786 138.332 97.1715 137.86 97.4609 137.448C97.7567 137.037 98.1168 136.718 98.5413 136.493C98.9657 136.262 99.4095 136.146 99.8725 136.146ZM101.233 138.885C101.258 138.763 101.271 138.631 101.271 138.49C101.271 138.059 101.143 137.721 100.885 137.477C100.635 137.226 100.319 137.101 99.94 137.101C99.6571 137.101 99.3805 137.172 99.1104 137.313C98.8403 137.448 98.6056 137.651 98.4062 137.921C98.2069 138.184 98.075 138.5 98.0107 138.866C97.985 138.988 97.9722 139.12 97.9722 139.262C97.9722 139.699 98.0976 140.046 98.3484 140.303C98.6056 140.554 98.9239 140.68 99.3034 140.68C99.5863 140.68 99.8629 140.609 100.133 140.467C100.403 140.326 100.638 140.12 100.837 139.85C101.037 139.574 101.168 139.252 101.233 138.885ZM111.724 134.844L111.569 135.702H109.785L108.752 141.548H107.653L108.685 135.702H106.891L107.045 134.844H111.724ZM113.976 141.635C113.525 141.635 113.13 141.541 112.789 141.355C112.448 141.168 112.181 140.905 111.988 140.564C111.802 140.223 111.709 139.834 111.709 139.397C111.709 138.799 111.847 138.252 112.123 137.757C112.406 137.262 112.792 136.869 113.281 136.58C113.776 136.291 114.326 136.146 114.931 136.146C115.381 136.146 115.78 136.242 116.127 136.435C116.474 136.622 116.744 136.885 116.937 137.226C117.136 137.561 117.236 137.95 117.236 138.393C117.236 138.992 117.091 139.538 116.802 140.033C116.513 140.529 116.12 140.921 115.625 141.21C115.13 141.493 114.58 141.635 113.976 141.635ZM114.111 140.709C114.477 140.709 114.812 140.606 115.114 140.4C115.423 140.188 115.664 139.911 115.837 139.57C116.011 139.223 116.098 138.853 116.098 138.461C116.098 138.017 115.972 137.676 115.722 137.438C115.471 137.194 115.156 137.072 114.776 137.072C114.403 137.072 114.069 137.178 113.773 137.39C113.484 137.596 113.255 137.876 113.088 138.229C112.927 138.577 112.847 138.95 112.847 139.348C112.847 139.779 112.963 140.114 113.194 140.352C113.432 140.59 113.738 140.709 114.111 140.709ZM117.908 138.866C118.005 138.332 118.198 137.86 118.487 137.448C118.783 137.037 119.143 136.718 119.568 136.493C119.992 136.262 120.439 136.146 120.909 136.146C121.256 136.146 121.584 136.223 121.892 136.377C122.201 136.525 122.436 136.725 122.597 136.975L123.05 134.409H124.159L122.896 141.548H121.786L121.931 140.747C121.7 141.011 121.41 141.226 121.063 141.394C120.722 141.554 120.346 141.635 119.934 141.635C119.529 141.635 119.169 141.545 118.854 141.365C118.539 141.185 118.291 140.93 118.111 140.602C117.937 140.268 117.851 139.885 117.851 139.455C117.851 139.262 117.87 139.065 117.908 138.866ZM122.259 138.885C122.285 138.763 122.298 138.631 122.298 138.49C122.298 138.059 122.169 137.721 121.912 137.477C121.661 137.226 121.346 137.101 120.966 137.101C120.683 137.101 120.407 137.172 120.137 137.313C119.867 137.448 119.632 137.651 119.433 137.921C119.233 138.184 119.101 138.5 119.037 138.866C119.011 138.988 118.999 139.12 118.999 139.262C118.999 139.699 119.124 140.046 119.375 140.303C119.632 140.554 119.95 140.68 120.33 140.68C120.613 140.68 120.889 140.609 121.159 140.467C121.429 140.326 121.664 140.12 121.864 139.85C122.063 139.574 122.195 139.252 122.259 138.885ZM124.446 138.866C124.543 138.332 124.736 137.86 125.025 137.448C125.321 137.037 125.681 136.718 126.105 136.493C126.53 136.262 126.974 136.146 127.437 136.146C127.855 136.146 128.205 136.229 128.488 136.397C128.771 136.557 128.983 136.76 129.125 137.004L129.26 136.233H130.369L129.433 141.548H128.324L128.469 140.757C128.237 141.008 127.945 141.217 127.591 141.384C127.244 141.551 126.864 141.635 126.453 141.635C126.054 141.635 125.697 141.545 125.382 141.365C125.073 141.185 124.829 140.93 124.649 140.602C124.475 140.268 124.388 139.885 124.388 139.455C124.388 139.262 124.408 139.065 124.446 138.866ZM128.797 138.885C128.823 138.763 128.835 138.631 128.835 138.49C128.835 138.059 128.707 137.721 128.45 137.477C128.199 137.226 127.884 137.101 127.504 137.101C127.221 137.101 126.945 137.172 126.675 137.313C126.404 137.448 126.17 137.651 125.97 137.921C125.771 138.184 125.639 138.5 125.575 138.866C125.549 138.988 125.536 139.12 125.536 139.262C125.536 139.699 125.662 140.046 125.912 140.303C126.17 140.554 126.488 140.68 126.867 140.68C127.15 140.68 127.427 140.609 127.697 140.467C127.967 140.326 128.202 140.12 128.401 139.85C128.601 139.574 128.732 139.252 128.797 138.885ZM132.412 136.233L133.193 140.284L135.46 136.233H136.598L131.968 144.046H130.83L132.363 141.461L131.187 136.233H132.412ZM137.93 140.226L136.3 142.889H135.586L136.734 140.226H137.93ZM143.982 141.615C143.571 141.615 143.201 141.551 142.873 141.422C142.545 141.287 142.284 141.094 142.091 140.844C141.898 140.586 141.802 140.284 141.802 139.937C141.802 139.892 141.808 139.811 141.821 139.696H142.911C142.886 139.992 142.972 140.239 143.172 140.439C143.371 140.631 143.657 140.728 144.03 140.728C144.429 140.728 144.741 140.648 144.966 140.487C145.191 140.32 145.304 140.082 145.304 139.773C145.304 139.586 145.246 139.429 145.13 139.3C145.021 139.165 144.879 139.053 144.706 138.963C144.538 138.873 144.304 138.766 144.001 138.644C143.603 138.477 143.284 138.326 143.046 138.191C142.808 138.056 142.603 137.869 142.429 137.631C142.262 137.393 142.178 137.094 142.178 136.734C142.178 136.336 142.281 135.988 142.487 135.692C142.693 135.39 142.976 135.159 143.336 134.998C143.702 134.837 144.114 134.757 144.571 134.757C145.027 134.757 145.419 134.834 145.747 134.988C146.082 135.136 146.333 135.348 146.5 135.625C146.673 135.895 146.751 136.213 146.731 136.58H145.574C145.6 136.316 145.519 136.098 145.333 135.924C145.146 135.744 144.876 135.654 144.522 135.654C144.149 135.654 143.85 135.741 143.625 135.914C143.407 136.082 143.297 136.31 143.297 136.599C143.297 136.779 143.352 136.937 143.461 137.072C143.577 137.2 143.722 137.313 143.895 137.41C144.069 137.5 144.304 137.609 144.599 137.737C144.998 137.918 145.317 138.078 145.554 138.22C145.799 138.361 146.008 138.554 146.182 138.799C146.355 139.037 146.442 139.332 146.442 139.686C146.442 140.059 146.339 140.393 146.133 140.689C145.927 140.979 145.638 141.207 145.265 141.374C144.892 141.535 144.464 141.615 143.982 141.615ZM150.567 136.146C151.23 136.146 151.757 136.332 152.149 136.705C152.548 137.078 152.747 137.58 152.747 138.21C152.747 138.358 152.731 138.535 152.699 138.741C152.673 138.882 152.628 139.056 152.564 139.262H148.503C148.496 139.307 148.493 139.374 148.493 139.464C148.493 139.844 148.609 140.146 148.84 140.371C149.078 140.596 149.387 140.709 149.766 140.709C150.365 140.709 150.824 140.461 151.146 139.966H152.332C152.088 140.455 151.728 140.857 151.252 141.172C150.776 141.48 150.226 141.635 149.602 141.635C149.159 141.635 148.77 141.548 148.435 141.374C148.101 141.201 147.84 140.953 147.654 140.631C147.467 140.303 147.374 139.921 147.374 139.484C147.374 139.297 147.393 139.098 147.432 138.885C147.528 138.339 147.725 137.86 148.02 137.448C148.316 137.03 148.683 136.709 149.12 136.483C149.564 136.258 150.046 136.146 150.567 136.146ZM151.599 138.471C151.612 138.355 151.619 138.271 151.619 138.22C151.619 137.866 151.5 137.586 151.262 137.381C151.03 137.175 150.728 137.072 150.355 137.072C149.963 137.072 149.609 137.197 149.294 137.448C148.979 137.699 148.763 138.04 148.647 138.471H151.599ZM153.386 138.885C153.482 138.339 153.675 137.86 153.965 137.448C154.26 137.03 154.624 136.709 155.055 136.483C155.492 136.258 155.965 136.146 156.473 136.146C157.116 136.146 157.621 136.3 157.987 136.609C158.354 136.911 158.563 137.345 158.614 137.911H157.428C157.376 137.647 157.257 137.442 157.071 137.294C156.884 137.146 156.63 137.072 156.309 137.072C155.858 137.072 155.473 137.233 155.151 137.554C154.829 137.869 154.617 138.313 154.514 138.885C154.482 139.091 154.466 139.258 154.466 139.387C154.466 139.811 154.572 140.139 154.784 140.371C154.997 140.596 155.293 140.709 155.672 140.709C156.309 140.709 156.778 140.429 157.08 139.869H158.267C158.016 140.41 157.649 140.84 157.167 141.162C156.691 141.477 156.138 141.635 155.508 141.635C154.839 141.635 154.309 141.445 153.916 141.066C153.524 140.68 153.328 140.159 153.328 139.503C153.328 139.303 153.347 139.098 153.386 138.885ZM164.813 136.233L163.877 141.548H162.778L162.884 140.921C162.672 141.139 162.414 141.313 162.112 141.442C161.816 141.564 161.511 141.625 161.196 141.625C160.636 141.625 160.189 141.474 159.855 141.172C159.52 140.869 159.353 140.442 159.353 139.889C159.353 139.741 159.369 139.564 159.401 139.358L159.951 136.233H161.041L160.52 139.194C160.495 139.374 160.482 139.503 160.482 139.58C160.482 139.934 160.578 140.204 160.771 140.39C160.971 140.577 161.244 140.67 161.591 140.67C161.996 140.67 162.34 140.551 162.623 140.313C162.906 140.069 163.093 139.718 163.183 139.262L163.713 136.233H164.813ZM167.2 137.168C167.418 136.847 167.676 136.596 167.971 136.416C168.274 136.236 168.608 136.146 168.975 136.146L168.772 137.284H168.492C168.068 137.284 167.727 137.39 167.47 137.602C167.213 137.815 167.033 138.181 166.93 138.702L166.428 141.548H165.328L166.264 136.233H167.364L167.2 137.168ZM170.651 135.528C170.478 135.528 170.336 135.474 170.227 135.364C170.117 135.255 170.063 135.117 170.063 134.95C170.063 134.725 170.146 134.532 170.314 134.371C170.487 134.204 170.683 134.12 170.902 134.12C171.076 134.12 171.214 134.175 171.317 134.284C171.426 134.393 171.481 134.532 171.481 134.699C171.481 134.924 171.397 135.12 171.23 135.287C171.063 135.448 170.87 135.528 170.651 135.528ZM171.066 136.233L170.13 141.548H169.031L169.966 136.233H171.066ZM175.211 136.146C175.77 136.146 176.214 136.297 176.542 136.599C176.876 136.895 177.044 137.323 177.044 137.882C177.044 138.024 177.028 138.201 176.995 138.413L176.436 141.548H175.346L175.876 138.577C175.902 138.397 175.915 138.268 175.915 138.191C175.915 137.837 175.815 137.567 175.616 137.381C175.423 137.194 175.153 137.101 174.806 137.101C174.388 137.101 174.034 137.229 173.745 137.487C173.462 137.737 173.281 138.101 173.204 138.577V138.548L172.674 141.548H171.574L172.51 136.233H173.609L173.503 136.85C173.722 136.631 173.979 136.461 174.275 136.339C174.577 136.21 174.889 136.146 175.211 136.146ZM180.935 136.146C181.347 136.146 181.697 136.229 181.987 136.397C182.282 136.557 182.495 136.76 182.623 137.004L182.758 136.233H183.868L182.922 141.635C182.832 142.123 182.652 142.558 182.382 142.937C182.112 143.323 181.762 143.625 181.331 143.844C180.9 144.062 180.414 144.172 179.874 144.172C179.405 144.172 178.993 144.095 178.639 143.94C178.286 143.792 178.019 143.577 177.839 143.294C177.659 143.011 177.581 142.676 177.607 142.291H178.697C178.729 142.567 178.868 142.789 179.112 142.956C179.356 143.13 179.668 143.217 180.048 143.217C180.491 143.217 180.874 143.082 181.196 142.812C181.517 142.541 181.723 142.149 181.813 141.635L181.967 140.747C181.736 140.998 181.446 141.21 181.099 141.384C180.752 141.551 180.376 141.635 179.97 141.635C179.565 141.635 179.205 141.545 178.89 141.365C178.575 141.185 178.327 140.93 178.147 140.602C177.974 140.268 177.887 139.885 177.887 139.455C177.887 139.262 177.906 139.065 177.945 138.866C178.041 138.332 178.234 137.86 178.524 137.448C178.819 137.037 179.179 136.718 179.604 136.493C180.028 136.262 180.472 136.146 180.935 136.146ZM182.295 138.885C182.321 138.763 182.334 138.631 182.334 138.49C182.334 138.059 182.205 137.721 181.948 137.477C181.697 137.226 181.382 137.101 181.003 137.101C180.72 137.101 180.443 137.172 180.173 137.313C179.903 137.448 179.668 137.651 179.469 137.921C179.27 138.184 179.138 138.5 179.073 138.866C179.048 138.988 179.035 139.12 179.035 139.262C179.035 139.699 179.16 140.046 179.411 140.303C179.668 140.554 179.987 140.68 180.366 140.68C180.649 140.68 180.925 140.609 181.196 140.467C181.466 140.326 181.7 140.12 181.9 139.85C182.099 139.574 182.231 139.252 182.295 138.885ZM192.786 134.844L192.632 135.702H190.847L189.815 141.548H188.715L189.748 135.702H187.953L188.108 134.844H192.786ZM195.038 141.635C194.588 141.635 194.193 141.541 193.852 141.355C193.511 141.168 193.244 140.905 193.051 140.564C192.865 140.223 192.771 139.834 192.771 139.397C192.771 138.799 192.91 138.252 193.186 137.757C193.469 137.262 193.855 136.869 194.344 136.58C194.839 136.291 195.389 136.146 195.993 136.146C196.443 136.146 196.842 136.242 197.189 136.435C197.537 136.622 197.807 136.885 198 137.226C198.199 137.561 198.299 137.95 198.299 138.393C198.299 138.992 198.154 139.538 197.865 140.033C197.575 140.529 197.183 140.921 196.688 141.21C196.193 141.493 195.643 141.635 195.038 141.635ZM195.173 140.709C195.54 140.709 195.874 140.606 196.177 140.4C196.485 140.188 196.726 139.911 196.9 139.57C197.074 139.223 197.16 138.853 197.16 138.461C197.16 138.017 197.035 137.676 196.784 137.438C196.533 137.194 196.218 137.072 195.839 137.072C195.466 137.072 195.132 137.178 194.836 137.39C194.546 137.596 194.318 137.876 194.151 138.229C193.99 138.577 193.91 138.95 193.91 139.348C193.91 139.779 194.025 140.114 194.257 140.352C194.495 140.59 194.8 140.709 195.173 140.709ZM206.254 136.146C206.814 136.146 207.261 136.297 207.595 136.599C207.929 136.901 208.097 137.329 208.097 137.882C208.097 138.03 208.081 138.207 208.048 138.413L207.489 141.548H206.399L206.929 138.577C206.955 138.397 206.968 138.268 206.968 138.191C206.968 137.837 206.868 137.567 206.669 137.381C206.476 137.194 206.206 137.101 205.859 137.101C205.441 137.101 205.087 137.229 204.798 137.487C204.515 137.737 204.335 138.101 204.257 138.577L203.727 141.548H202.637L203.167 138.577C203.193 138.397 203.206 138.268 203.206 138.191C203.206 137.837 203.106 137.567 202.907 137.381C202.714 137.194 202.444 137.101 202.097 137.101C201.679 137.101 201.325 137.229 201.035 137.487C200.752 137.737 200.572 138.101 200.495 138.577V138.548L199.965 141.548H198.865L199.801 136.233H200.9L200.794 136.85C201.006 136.631 201.261 136.461 201.556 136.339C201.859 136.21 202.171 136.146 202.492 136.146C202.916 136.146 203.28 136.236 203.582 136.416C203.891 136.596 204.106 136.856 204.228 137.197C204.441 136.876 204.733 136.622 205.106 136.435C205.479 136.242 205.862 136.146 206.254 136.146ZM211.213 141.635C210.763 141.635 210.367 141.541 210.027 141.355C209.686 141.168 209.419 140.905 209.226 140.564C209.039 140.223 208.946 139.834 208.946 139.397C208.946 138.799 209.084 138.252 209.361 137.757C209.644 137.262 210.03 136.869 210.519 136.58C211.014 136.291 211.564 136.146 212.168 136.146C212.618 136.146 213.017 136.242 213.364 136.435C213.712 136.622 213.982 136.885 214.175 137.226C214.374 137.561 214.474 137.95 214.474 138.393C214.474 138.992 214.329 139.538 214.04 140.033C213.75 140.529 213.358 140.921 212.863 141.21C212.367 141.493 211.818 141.635 211.213 141.635ZM211.348 140.709C211.715 140.709 212.049 140.606 212.351 140.4C212.66 140.188 212.901 139.911 213.075 139.57C213.248 139.223 213.335 138.853 213.335 138.461C213.335 138.017 213.21 137.676 212.959 137.438C212.708 137.194 212.393 137.072 212.014 137.072C211.641 137.072 211.306 137.178 211.011 137.39C210.721 137.596 210.493 137.876 210.326 138.229C210.165 138.577 210.084 138.95 210.084 139.348C210.084 139.779 210.2 140.114 210.432 140.352C210.67 140.59 210.975 140.709 211.348 140.709ZM216.911 137.168C217.13 136.847 217.387 136.596 217.683 136.416C217.985 136.236 218.32 136.146 218.686 136.146L218.484 137.284H218.204C217.779 137.284 217.439 137.39 217.181 137.602C216.924 137.815 216.744 138.181 216.641 138.702L216.14 141.548H215.04L215.976 136.233H217.075L216.911 137.168ZM220.613 137.168C220.832 136.847 221.089 136.596 221.385 136.416C221.687 136.236 222.022 136.146 222.388 136.146L222.186 137.284H221.906C221.482 137.284 221.141 137.39 220.884 137.602C220.626 137.815 220.446 138.181 220.343 138.702L219.842 141.548H218.742L219.678 136.233H220.777L220.613 137.168ZM224.769 141.635C224.319 141.635 223.923 141.541 223.583 141.355C223.242 141.168 222.975 140.905 222.782 140.564C222.595 140.223 222.502 139.834 222.502 139.397C222.502 138.799 222.64 138.252 222.917 137.757C223.2 137.262 223.586 136.869 224.075 136.58C224.57 136.291 225.12 136.146 225.724 136.146C226.174 136.146 226.573 136.242 226.92 136.435C227.268 136.622 227.538 136.885 227.731 137.226C227.93 137.561 228.03 137.95 228.03 138.393C228.03 138.992 227.885 139.538 227.595 140.033C227.306 140.529 226.914 140.921 226.419 141.21C225.923 141.493 225.374 141.635 224.769 141.635ZM224.904 140.709C225.271 140.709 225.605 140.606 225.907 140.4C226.216 140.188 226.457 139.911 226.631 139.57C226.804 139.223 226.891 138.853 226.891 138.461C226.891 138.017 226.766 137.676 226.515 137.438C226.264 137.194 225.949 137.072 225.57 137.072C225.197 137.072 224.862 137.178 224.566 137.39C224.277 137.596 224.049 137.876 223.882 138.229C223.721 138.577 223.64 138.95 223.64 139.348C223.64 139.779 223.756 140.114 223.988 140.352C224.226 140.59 224.531 140.709 224.904 140.709ZM236.67 136.233L234.085 141.548H232.927L232.56 137.622L230.786 141.548H229.628L228.904 136.233H230.023L230.39 140.506L232.261 136.233H233.409L233.747 140.487L235.589 136.233H236.67Z" fill="white"/>
</g>
<defs>
<filter id="filter0_d_138_5024" x="0" y="0" width="270.649" height="152.172" filterUnits="userSpaceOnUse" color-interpolation-filters="sRGB">
<feFlood flood-opacity="0" result="BackgroundImageFix"/>
<feColorMatrix in="SourceAlpha" type="matrix" values="0 0 0 0 0 0 0 0 0 0 0 0 0 0 0 0 0 0 127 0" result="hardAlpha"/>
<feOffset dy="4"/>
<feGaussianBlur stdDeviation="2"/>
<feComposite in2="hardAlpha" operator="out"/>
<feColorMatrix type="matrix" values="0 0 0 0 0 0 0 0 0 0 0 0 0 0 0 0 0 0 0.25 0"/>
<feBlend mode="normal" in2="BackgroundImageFix" result="effect1_dropShadow_138_5024"/>
<feBlend mode="normal" in="SourceGraphic" in2="effect1_dropShadow_138_5024" result="shape"/>
</filter>
</defs>
</svg>
